<mxfile host="app.diagrams.net" modified="2021-04-13T08:44:32.697Z" agent="5.0 (Macintosh; Intel Mac OS X 10_14_3) AppleWebKit/537.36 (KHTML, like Gecko) Chrome/89.0.4389.114 Safari/537.36" etag="_ikasB9iNvVCNgYOqNhy" version="14.5.8" type="github">
  <diagram id="Lof0R5rhfGAX3NdKyFyQ" name="Page-1">
    <mxGraphModel dx="1188" dy="669" grid="0" gridSize="10" guides="1" tooltips="1" connect="1" arrows="1" fold="1" page="1" pageScale="1" pageWidth="600" pageHeight="250" background="#EFF1F3" math="0" shadow="0">
      <root>
        <mxCell id="0" />
        <mxCell id="1" parent="0" />
        <mxCell id="wdfUIwA4EHPiVqjbUW1X-7" value="" style="rounded=1;whiteSpace=wrap;html=1;strokeColor=#000000;fillColor=none;dashed=1;strokeWidth=5;" vertex="1" parent="1">
          <mxGeometry x="152.5" y="52.400000000000006" width="178" height="175.2" as="geometry" />
        </mxCell>
        <mxCell id="wdfUIwA4EHPiVqjbUW1X-1" value="" style="rounded=1;whiteSpace=wrap;html=1;strokeColor=none;fillColor=#4A919B;" vertex="1" parent="1">
          <mxGeometry x="183" y="72.22999999999999" width="120" height="60" as="geometry" />
        </mxCell>
        <mxCell id="wdfUIwA4EHPiVqjbUW1X-2" value="readLoop" style="text;html=1;strokeColor=none;fillColor=none;align=center;verticalAlign=middle;whiteSpace=wrap;rounded=0;" vertex="1" parent="1">
          <mxGeometry x="201" y="92.22999999999999" width="81" height="20" as="geometry" />
        </mxCell>
        <mxCell id="wdfUIwA4EHPiVqjbUW1X-3" value="writeLoop" style="rounded=1;whiteSpace=wrap;html=1;strokeColor=none;fillColor=#FDD276;" vertex="1" parent="1">
          <mxGeometry x="181.5" y="150.23" width="120" height="60" as="geometry" />
        </mxCell>
        <mxCell id="wdfUIwA4EHPiVqjbUW1X-5" value="" style="fontColor=#0066CC;verticalAlign=top;verticalLabelPosition=bottom;labelPosition=center;align=center;html=1;outlineConnect=0;gradientColor=none;gradientDirection=north;strokeWidth=2;shape=mxgraph.networks.server;fillColor=#4A919B;" vertex="1" parent="1">
          <mxGeometry x="489" y="94.44" width="82" height="91.11" as="geometry" />
        </mxCell>
        <mxCell id="wdfUIwA4EHPiVqjbUW1X-6" value="" style="fontColor=#0066CC;verticalAlign=top;verticalLabelPosition=bottom;labelPosition=center;align=center;html=1;outlineConnect=0;gradientColor=none;gradientDirection=north;strokeWidth=2;shape=mxgraph.networks.pc;fillColor=#4A919B;" vertex="1" parent="1">
          <mxGeometry x="27" y="109.77000000000001" width="100" height="70" as="geometry" />
        </mxCell>
        <mxCell id="wdfUIwA4EHPiVqjbUW1X-8" value="&lt;pre style=&quot;font-family: &amp;#34;source code pro&amp;#34;&quot;&gt;&lt;font style=&quot;font-size: 20px&quot;&gt;persistConn&lt;/font&gt;&lt;/pre&gt;" style="text;html=1;strokeColor=none;fillColor=none;align=center;verticalAlign=middle;whiteSpace=wrap;rounded=0;dashed=1;" vertex="1" parent="1">
          <mxGeometry x="161.25" y="18" width="160.5" height="20" as="geometry" />
        </mxCell>
        <mxCell id="wdfUIwA4EHPiVqjbUW1X-9" value="" style="shape=flexArrow;endArrow=classic;html=1;rounded=1;strokeColor=none;fillColor=#4A919B;" edge="1" parent="1">
          <mxGeometry width="50" height="50" relative="1" as="geometry">
            <mxPoint x="375" y="118" as="sourcePoint" />
            <mxPoint x="457" y="118" as="targetPoint" />
          </mxGeometry>
        </mxCell>
        <mxCell id="wdfUIwA4EHPiVqjbUW1X-10" value="" style="shape=flexArrow;endArrow=classic;html=1;rounded=1;strokeColor=none;fillColor=#FDD276;" edge="1" parent="1">
          <mxGeometry width="50" height="50" relative="1" as="geometry">
            <mxPoint x="454" y="168.02999999999983" as="sourcePoint" />
            <mxPoint x="370" y="167.99999999999997" as="targetPoint" />
          </mxGeometry>
        </mxCell>
        <mxCell id="wdfUIwA4EHPiVqjbUW1X-12" value="&lt;pre style=&quot;font-family: &amp;#34;source code pro&amp;#34;&quot;&gt;&lt;font style=&quot;font-size: 20px&quot;&gt;client&lt;/font&gt;&lt;/pre&gt;" style="text;html=1;strokeColor=none;fillColor=none;align=center;verticalAlign=middle;whiteSpace=wrap;rounded=0;dashed=1;" vertex="1" parent="1">
          <mxGeometry x="16" y="77" width="125.5" height="20" as="geometry" />
        </mxCell>
        <mxCell id="wdfUIwA4EHPiVqjbUW1X-13" value="&lt;pre style=&quot;font-family: &amp;#34;source code pro&amp;#34;&quot;&gt;&lt;font style=&quot;font-size: 20px&quot;&gt;Server&lt;/font&gt;&lt;/pre&gt;" style="text;html=1;strokeColor=none;fillColor=none;align=center;verticalAlign=middle;whiteSpace=wrap;rounded=0;dashed=1;" vertex="1" parent="1">
          <mxGeometry x="459" y="64" width="125.5" height="20" as="geometry" />
        </mxCell>
      </root>
    </mxGraphModel>
  </diagram>
</mxfile>
